<?xml version="1.0" encoding="UTF-8"?>
<svg version="1.1" xmlns="http://www.w3.org/2000/svg" width="339" height="318">
<path d="M0 0 C1.25265656 0.02013971 2.50531311 0.04027943 3.79592896 0.06102943 C7.33152984 0.12000023 10.86692444 0.1857018 14.40234375 0.25463867 C15.93844803 0.28120954 15.93844803 0.28120954 17.50558472 0.30831718 C24.06051375 0.44976951 30.54132401 0.90506192 37.0625 1.58203125 C37.0625 2.24203125 37.0625 2.90203125 37.0625 3.58203125 C38.30193359 3.71544922 38.30193359 3.71544922 39.56640625 3.8515625 C43.77906818 4.73174996 47.18676845 6.32252107 51 8.26953125 C52.05960937 8.80537842 52.05960937 8.80537842 53.140625 9.35205078 C58.05733337 11.90504476 62.21325177 14.5403206 66.0625 18.58203125 C66.0625 19.24203125 66.0625 19.90203125 66.0625 20.58203125 C66.63097656 20.783125 67.19945312 20.98421875 67.78515625 21.19140625 C70.9313778 23.11259814 72.57605219 25.77598553 74.5 28.83203125 C75.08986694 29.76813232 75.08986694 29.76813232 75.69165039 30.72314453 C85.7402799 47.23797487 86.37271477 65.39279309 86.32128906 84.14892578 C86.32400755 85.84283599 86.32757324 87.53674501 86.33190918 89.23065186 C86.34093222 93.78011624 86.3375315 98.32948867 86.33115101 102.87895441 C86.32603987 107.66896952 86.33079637 112.45897746 86.33392334 117.24899292 C86.33754752 125.28628941 86.33280401 133.32354898 86.32324219 141.36083984 C86.31235322 150.61993208 86.31589271 159.87893624 86.326895 169.13802636 C86.33600333 177.12661967 86.3372361 185.11518665 86.33201766 193.10378349 C86.32891834 197.85812501 86.32843216 202.61242528 86.33509064 207.36676407 C86.34091563 211.83700639 86.33677407 216.30713631 86.32530212 220.77736664 C86.32268318 222.40663085 86.32337255 224.03590472 86.32782745 225.66516495 C86.36220781 239.52880414 85.63186068 252.65876122 80.0625 265.58203125 C79.57523437 266.80986328 79.57523437 266.80986328 79.078125 268.0625 C72.42871099 283.21641816 57.69933678 294.86920743 42.55971527 300.79906273 C30.4953376 304.58168734 18.40103203 305.01969603 5.88476562 304.97021484 C4.12513404 304.974292 2.36550502 304.97964022 0.60588074 304.98614502 C-4.12349936 304.9996886 -8.85268061 304.9945742 -13.58206367 304.98500776 C-18.56199758 304.97734328 -23.54191592 304.98447543 -28.52185059 304.98916626 C-36.88032039 304.99460423 -45.23871033 304.9874839 -53.59716797 304.97314453 C-63.22207144 304.95682184 -72.84678417 304.96211174 -82.47168303 304.97862375 C-90.77708666 304.99229472 -99.0824333 304.99413099 -107.38784456 304.98630774 C-112.33006186 304.98166192 -117.2721899 304.98092026 -122.21440125 304.99091721 C-126.86362703 304.99966683 -131.51261001 304.99342112 -136.16180992 304.97623444 C-137.85473416 304.97231185 -139.54767931 304.97332974 -141.24059486 304.98002243 C-154.98315503 305.02928813 -169.72670023 304.59761638 -181.9375 297.58203125 C-183.02675781 296.96457031 -184.11601562 296.34710938 -185.23828125 295.7109375 C-200.78819387 286.52331259 -211.02202289 273.00739761 -215.9375 255.58203125 C-215.9375 254.26203125 -215.9375 252.94203125 -215.9375 251.58203125 C-216.5975 251.25203125 -217.2575 250.92203125 -217.9375 250.58203125 C-217.92009766 249.13570313 -217.92009766 249.13570313 -217.90234375 247.66015625 C-217.89332031 246.396875 -217.88429687 245.13359375 -217.875 243.83203125 C-217.86339844 242.5790625 -217.85179687 241.32609375 -217.83984375 240.03515625 C-217.91805374 237.26965115 -218.20897023 235.20228957 -218.9375 232.58203125 C-218.60416667 231.24869792 -218.27083333 229.91536458 -217.9375 228.58203125 C-218.1025 227.92203125 -218.2675 227.26203125 -218.4375 226.58203125 C-219.027263 224.22297926 -218.55423215 222.89477682 -217.9375 220.58203125 C-218.2675 219.92203125 -218.5975 219.26203125 -218.9375 218.58203125 C-218.7725 217.57140625 -218.6075 216.56078125 -218.4375 215.51953125 C-218.02759499 212.29152931 -218.00933692 210.2129738 -218.4375 207.08203125 C-218.98532563 203.04866503 -218.54612967 199.6142028 -217.9375 195.58203125 C-218.24012289 193.57715457 -218.56663819 191.57541346 -218.9375 189.58203125 C-218.4425 188.59203125 -218.4425 188.59203125 -217.9375 187.58203125 C-218.1025 186.59203125 -218.2675 185.60203125 -218.4375 184.58203125 C-218.9375 181.58203125 -218.9375 181.58203125 -217.9375 179.58203125 C-217.83860984 176.98761874 -217.79855427 174.42593645 -217.8125 171.83203125 C-217.80863281 171.12820312 -217.80476562 170.424375 -217.80078125 169.69921875 C-217.80687143 166.42270331 -217.96205728 163.43603315 -218.5078125 160.19140625 C-218.9375 157.58203125 -218.9375 157.58203125 -217.9375 155.58203125 C-218.02582993 154.04064504 -218.18090211 152.50290955 -218.36669922 150.97021484 C-219.12791747 143.44251031 -219.08207696 135.92742245 -219.0703125 128.37109375 C-219.07098771 126.82937607 -219.07195955 125.28765849 -219.07321167 123.74594116 C-219.07467576 120.53715995 -219.07257412 117.32840682 -219.06787109 114.11962891 C-219.06214551 110.01418159 -219.06547876 105.90879926 -219.07144356 101.80335426 C-219.07505947 98.62917593 -219.07390634 95.45501299 -219.07131577 92.2808342 C-219.07065085 90.76661547 -219.07145965 89.25239533 -219.07379532 87.73817825 C-219.07634197 85.62570743 -219.07245423 83.5133419 -219.06689453 81.40087891 C-219.06609894 80.20161774 -219.06530334 79.00235657 -219.06448364 77.76675415 C-218.9375 74.58203125 -218.9375 74.58203125 -218.36691284 71.84335327 C-217.71786192 69.42817396 -217.71786192 69.42817396 -218.9375 66.58203125 C-217.35067411 48.5024394 -210.55877025 30.00621213 -197.1484375 17.41796875 C-182.45172075 5.21398134 -165.84995813 0.31434893 -147.05859375 0.24731445 C-145.35491638 0.22983658 -145.35491638 0.22983658 -143.61682129 0.21200562 C-139.86956162 0.1761321 -136.1223687 0.15412318 -132.375 0.1328125 C-129.70710537 0.11147838 -127.03922157 0.08953027 -124.37133789 0.06694031 C-118.75280018 0.02090304 -113.13424993 -0.01741101 -107.515625 -0.05102539 C-101.88272907 -0.08479782 -96.24996321 -0.12605868 -90.6171875 -0.17602539 C-60.40562489 -0.44316802 -30.20953 -0.50514313 0 0 Z M-176.6875 36.95703125 C-177.43 37.82328125 -178.1725 38.68953125 -178.9375 39.58203125 C-179.42863281 40.09507813 -179.91976562 40.608125 -180.42578125 41.13671875 C-191.79097637 53.37615965 -191.24077843 69.71799421 -191.16455078 85.47973633 C-191.16398531 87.13680515 -191.16430587 88.79387446 -191.16543579 90.45094299 C-191.16600501 94.90875362 -191.15432117 99.36645461 -191.14028788 103.82423997 C-191.12770801 108.4980298 -191.12660434 113.17182268 -191.12423706 117.84562683 C-191.11804348 126.67796014 -191.10166163 135.51024339 -191.08153808 144.34255475 C-191.05911271 154.40553559 -191.04816902 164.46851893 -191.03814721 174.53151858 C-191.01729333 195.21505064 -190.98215899 215.89853778 -190.9375 236.58203125 C-180.05716496 225.82068304 -180.05716496 225.82068304 -170.9375 213.58203125 C-170.9375 212.92203125 -170.9375 212.26203125 -170.9375 211.58203125 C-170.39222656 211.38222656 -169.84695312 211.18242187 -169.28515625 210.9765625 C-165.97107897 209.00796751 -163.79977519 206.20445395 -161.375 203.26953125 C-160.8490625 202.64433594 -160.323125 202.01914063 -159.78125 201.375 C-158.69109576 200.07831773 -157.6037098 198.77930327 -156.51904297 197.47802734 C-154.61616456 195.19680572 -152.69780924 192.92905022 -150.77709961 190.6628418 C-149.87978226 189.60395172 -148.98346925 188.54420977 -148.08813477 187.48364258 C-144.181546 182.85695819 -140.23182795 178.26800479 -136.28173828 173.6784668 C-133.23517556 170.12777875 -130.25310701 166.53405013 -127.3125 162.89453125 C-124.18777106 159.06659652 -121.01336097 155.29282771 -117.75 151.58203125 C-116.97269531 150.69515625 -116.19539063 149.80828125 -115.39453125 148.89453125 C-111.65377589 145.37382032 -107.77295065 143.1542161 -102.5625 143.14453125 C-101.87414062 143.12519531 -101.18578125 143.10585937 -100.4765625 143.0859375 C-93.06220902 144.5345881 -88.16699239 148.80369419 -83.3125 154.33203125 C-82.47392456 155.26039795 -82.47392456 155.26039795 -81.6184082 156.20751953 C-77.79332632 160.48521092 -74.23022995 164.87813132 -70.9375 169.58203125 C-62.90609889 161.63729994 -55.40113688 153.29180584 -48.31640625 144.49609375 C-45.08123677 140.53314395 -41.73860079 136.66697641 -38.39453125 132.79589844 C-34.4743932 128.24502023 -30.6928258 123.60323428 -26.97265625 118.88671875 C-23.49191775 114.94499953 -19.96503991 112.17612927 -14.9375 110.58203125 C-13.6071875 110.08703125 -13.6071875 110.08703125 -12.25 109.58203125 C-5.73764602 109.58203125 -0.92289668 113.66352389 3.61328125 118.046875 C8.57978743 123.43047501 13.1747155 129.119488 17.76953125 134.8203125 C20.9652595 138.66934124 24.36768841 142.31449413 27.76171875 145.98828125 C30.36792695 148.92634958 32.67877936 151.98762253 34.90625 155.21875 C35.2878125 155.66863281 35.669375 156.11851562 36.0625 156.58203125 C36.7225 156.58203125 37.3825 156.58203125 38.0625 156.58203125 C38.30613281 157.1440625 38.54976562 157.70609375 38.80078125 158.28515625 C40.30430936 161.0222291 42.12949748 163.03999066 44.25 165.33203125 C48.25134221 169.69595463 52.17976474 174.11251606 56.0625 178.58203125 C56.7225 178.25203125 57.3825 177.92203125 58.0625 177.58203125 C58.10933352 162.89100077 58.14454427 148.19998025 58.16612434 133.50889015 C58.17641309 126.68672812 58.1904272 119.86461262 58.21337891 113.04248047 C58.23553105 106.4548389 58.24707984 99.86723285 58.25225449 93.27955246 C58.25594073 90.77024959 58.26313899 88.26094927 58.27396011 85.75166702 C58.28854521 82.22843025 58.29047499 78.70539117 58.28955078 75.18212891 C58.30033661 73.63708176 58.30033661 73.63708176 58.31134033 72.06082153 C58.27553245 59.38876537 55.637121 47.76969839 46.86328125 38.1796875 C37.48222781 29.85680061 26.8701365 27.4643944 14.60636902 27.44831848 C13.52992322 27.44492015 13.52992322 27.44492015 12.43173105 27.44145316 C10.04455855 27.43515994 7.65744351 27.43593949 5.27026367 27.43676758 C3.5514875 27.43377317 1.832712 27.43036999 0.11393738 27.42658997 C-4.54319942 27.4177745 -9.20031783 27.41541288 -13.85746217 27.41477418 C-16.77040627 27.41406229 -19.68334573 27.41192532 -22.59628868 27.40927696 C-32.76805288 27.40003167 -42.939804 27.39594106 -53.11157227 27.39672852 C-62.57788363 27.39732909 -72.04413798 27.38677906 -81.51043493 27.37098485 C-89.6507951 27.35788921 -97.79113667 27.35254547 -105.93150729 27.35318393 C-110.78758322 27.35343832 -115.64360845 27.35061968 -120.49967384 27.34000587 C-125.06908858 27.33029079 -129.63840449 27.33026902 -134.2078228 27.33752251 C-135.87907684 27.33856411 -137.55033715 27.33623079 -139.22158051 27.33016205 C-152.84355203 27.2839243 -165.85695685 27.60338035 -176.6875 36.95703125 Z " fill="#2E9CFE" transform="translate(224.9375,8.41796875)"/>
<path d="M0 0 C1.25265656 0.02013971 2.50531311 0.04027943 3.79592896 0.06102943 C7.33152984 0.12000023 10.86692444 0.1857018 14.40234375 0.25463867 C15.93844803 0.28120954 15.93844803 0.28120954 17.50558472 0.30831718 C24.06051375 0.44976951 30.54132401 0.90506192 37.0625 1.58203125 C37.0625 2.24203125 37.0625 2.90203125 37.0625 3.58203125 C38.30193359 3.71544922 38.30193359 3.71544922 39.56640625 3.8515625 C43.77906818 4.73174996 47.18676845 6.32252107 51 8.26953125 C52.05960937 8.80537842 52.05960937 8.80537842 53.140625 9.35205078 C58.05733337 11.90504476 62.21325177 14.5403206 66.0625 18.58203125 C66.0625 19.24203125 66.0625 19.90203125 66.0625 20.58203125 C66.63097656 20.783125 67.19945312 20.98421875 67.78515625 21.19140625 C70.9313778 23.11259814 72.57605219 25.77598553 74.5 28.83203125 C75.08986694 29.76813232 75.08986694 29.76813232 75.69165039 30.72314453 C85.7402799 47.23797487 86.37271477 65.39279309 86.32128906 84.14892578 C86.32400755 85.84283599 86.32757324 87.53674501 86.33190918 89.23065186 C86.34093222 93.78011624 86.3375315 98.32948867 86.33115101 102.87895441 C86.32603987 107.66896952 86.33079637 112.45897746 86.33392334 117.24899292 C86.33754752 125.28628941 86.33280401 133.32354898 86.32324219 141.36083984 C86.31235322 150.61993208 86.31589271 159.87893624 86.326895 169.13802636 C86.33600333 177.12661967 86.3372361 185.11518665 86.33201766 193.10378349 C86.32891834 197.85812501 86.32843216 202.61242528 86.33509064 207.36676407 C86.34091563 211.83700639 86.33677407 216.30713631 86.32530212 220.77736664 C86.32268318 222.40663085 86.32337255 224.03590472 86.32782745 225.66516495 C86.36220781 239.52880414 85.63186068 252.65876122 80.0625 265.58203125 C79.57523437 266.80986328 79.57523437 266.80986328 79.078125 268.0625 C72.42871099 283.21641816 57.69933678 294.86920743 42.55971527 300.79906273 C30.4953376 304.58168734 18.40103203 305.01969603 5.88476562 304.97021484 C4.12513404 304.974292 2.36550502 304.97964022 0.60588074 304.98614502 C-4.12349936 304.9996886 -8.85268061 304.9945742 -13.58206367 304.98500776 C-18.56199758 304.97734328 -23.54191592 304.98447543 -28.52185059 304.98916626 C-36.88032039 304.99460423 -45.23871033 304.9874839 -53.59716797 304.97314453 C-63.22207144 304.95682184 -72.84678417 304.96211174 -82.47168303 304.97862375 C-90.77708666 304.99229472 -99.0824333 304.99413099 -107.38784456 304.98630774 C-112.33006186 304.98166192 -117.2721899 304.98092026 -122.21440125 304.99091721 C-126.86362703 304.99966683 -131.51261001 304.99342112 -136.16180992 304.97623444 C-137.85473416 304.97231185 -139.54767931 304.97332974 -141.24059486 304.98002243 C-154.98315503 305.02928813 -169.72670023 304.59761638 -181.9375 297.58203125 C-183.02675781 296.96457031 -184.11601562 296.34710938 -185.23828125 295.7109375 C-200.78819387 286.52331259 -211.02202289 273.00739761 -215.9375 255.58203125 C-215.9375 254.26203125 -215.9375 252.94203125 -215.9375 251.58203125 C-216.5975 251.25203125 -217.2575 250.92203125 -217.9375 250.58203125 C-217.92009766 249.13570313 -217.92009766 249.13570313 -217.90234375 247.66015625 C-217.89332031 246.396875 -217.88429687 245.13359375 -217.875 243.83203125 C-217.86339844 242.5790625 -217.85179687 241.32609375 -217.83984375 240.03515625 C-217.91805374 237.26965115 -218.20897023 235.20228957 -218.9375 232.58203125 C-218.60416667 231.24869792 -218.27083333 229.91536458 -217.9375 228.58203125 C-218.1025 227.92203125 -218.2675 227.26203125 -218.4375 226.58203125 C-219.027263 224.22297926 -218.55423215 222.89477682 -217.9375 220.58203125 C-218.2675 219.92203125 -218.5975 219.26203125 -218.9375 218.58203125 C-218.7725 217.57140625 -218.6075 216.56078125 -218.4375 215.51953125 C-218.02759499 212.29152931 -218.00933692 210.2129738 -218.4375 207.08203125 C-218.98532563 203.04866503 -218.54612967 199.6142028 -217.9375 195.58203125 C-218.24012289 193.57715457 -218.56663819 191.57541346 -218.9375 189.58203125 C-218.4425 188.59203125 -218.4425 188.59203125 -217.9375 187.58203125 C-218.1025 186.59203125 -218.2675 185.60203125 -218.4375 184.58203125 C-218.9375 181.58203125 -218.9375 181.58203125 -217.9375 179.58203125 C-217.83860984 176.98761874 -217.79855427 174.42593645 -217.8125 171.83203125 C-217.80863281 171.12820312 -217.80476562 170.424375 -217.80078125 169.69921875 C-217.80687143 166.42270331 -217.96205728 163.43603315 -218.5078125 160.19140625 C-218.9375 157.58203125 -218.9375 157.58203125 -217.9375 155.58203125 C-218.02582993 154.04064504 -218.18090211 152.50290955 -218.36669922 150.97021484 C-219.12791747 143.44251031 -219.08207696 135.92742245 -219.0703125 128.37109375 C-219.07098771 126.82937607 -219.07195955 125.28765849 -219.07321167 123.74594116 C-219.07467576 120.53715995 -219.07257412 117.32840682 -219.06787109 114.11962891 C-219.06214551 110.01418159 -219.06547876 105.90879926 -219.07144356 101.80335426 C-219.07505947 98.62917593 -219.07390634 95.45501299 -219.07131577 92.2808342 C-219.07065085 90.76661547 -219.07145965 89.25239533 -219.07379532 87.73817825 C-219.07634197 85.62570743 -219.07245423 83.5133419 -219.06689453 81.40087891 C-219.06609894 80.20161774 -219.06530334 79.00235657 -219.06448364 77.76675415 C-218.9375 74.58203125 -218.9375 74.58203125 -218.36691284 71.84335327 C-217.71786192 69.42817396 -217.71786192 69.42817396 -218.9375 66.58203125 C-217.35067411 48.5024394 -210.55877025 30.00621213 -197.1484375 17.41796875 C-182.45172075 5.21398134 -165.84995813 0.31434893 -147.05859375 0.24731445 C-145.35491638 0.22983658 -145.35491638 0.22983658 -143.61682129 0.21200562 C-139.86956162 0.1761321 -136.1223687 0.15412318 -132.375 0.1328125 C-129.70710537 0.11147838 -127.03922157 0.08953027 -124.37133789 0.06694031 C-118.75280018 0.02090304 -113.13424993 -0.01741101 -107.515625 -0.05102539 C-101.88272907 -0.08479782 -96.24996321 -0.12605868 -90.6171875 -0.17602539 C-60.40562489 -0.44316802 -30.20953 -0.50514313 0 0 Z M-176.6875 36.95703125 C-177.43 37.82328125 -178.1725 38.68953125 -178.9375 39.58203125 C-179.42863281 40.09507813 -179.91976562 40.608125 -180.42578125 41.13671875 C-191.95591967 53.5537909 -191.23914184 70.25234928 -191.22802734 86.22314453 C-191.23402501 87.96088953 -191.24083336 89.6986319 -191.24838257 91.43637085 C-191.26591492 96.11802299 -191.27073225 100.79960186 -191.27201414 105.48128366 C-191.27344255 108.41269967 -191.27772491 111.34409744 -191.28300858 114.27550888 C-191.3014602 124.51978475 -191.30968452 134.76400884 -191.30810547 145.00830078 C-191.30690248 154.53159177 -191.32804826 164.05465673 -191.3595928 173.57789052 C-191.38578968 181.78123982 -191.39647147 189.98451536 -191.39519465 198.18790615 C-191.39468642 203.07584356 -191.40029402 207.96357934 -191.42155075 212.85147476 C-191.44099316 217.44651065 -191.44101681 222.04115357 -191.42651749 226.63620377 C-191.42443636 228.31511005 -191.42908845 229.99404136 -191.4412384 231.67290497 C-191.53013276 244.81420229 -189.76078419 256.24726369 -180.9375 266.58203125 C-169.60181234 277.60873935 -158.54314758 278.02986106 -143.57299805 278.00195312 C-141.70938612 278.00930048 -139.84577874 278.01788864 -137.98217773 278.02761841 C-132.93863682 278.0497739 -127.89525959 278.05276805 -122.8516767 278.0508709 C-118.63225421 278.05075091 -114.41286604 278.0593266 -110.19345313 278.06764841 C-100.23351887 278.08686134 -90.27366841 278.08977412 -80.3137207 278.08300781 C-70.05998729 278.07636973 -59.80661385 278.09922701 -49.55295342 278.13632154 C-40.73055574 278.16707287 -31.90827353 278.17837265 -23.08582336 278.17448473 C-17.82497003 278.17242272 -12.56439687 278.17781165 -7.30359459 278.20237732 C-2.35314566 278.22473153 2.59672033 278.22269473 7.54717255 278.2024498 C9.35627132 278.19905497 11.16541 278.20406243 12.97445488 278.21843338 C26.76721397 278.32037794 37.77510865 276.7118314 48.16015625 266.68359375 C58.04989217 255.75817706 58.50116098 243.82868732 58.43481445 229.82836914 C58.43724524 228.03047984 58.44096734 226.23259189 58.44587708 224.43470764 C58.45525105 219.57101513 58.44588967 214.70752511 58.43254495 209.84384847 C58.42119135 204.74228862 58.42534102 199.64073817 58.42729187 194.53916931 C58.42817369 185.97244986 58.41711853 177.40580971 58.39868164 168.83911133 C58.37752254 158.95126571 58.37400342 149.06353626 58.3802436 139.17567259 C58.3859496 129.64438162 58.38027659 120.11313134 58.36907005 110.58184624 C58.36443975 106.53465455 58.36354341 102.48748787 58.3656559 98.44029427 C58.36754744 93.66892592 58.3593686 88.89767485 58.3435955 84.12633324 C58.33937348 82.38090627 58.33848799 80.63546736 58.34128571 78.89003754 C58.3617906 63.80236939 57.57589319 49.88882149 46.86328125 38.1796875 C37.48222781 29.85680061 26.8701365 27.4643944 14.60636902 27.44831848 C13.52992322 27.44492015 13.52992322 27.44492015 12.43173105 27.44145316 C10.04455855 27.43515994 7.65744351 27.43593949 5.27026367 27.43676758 C3.5514875 27.43377317 1.832712 27.43036999 0.11393738 27.42658997 C-4.54319942 27.4177745 -9.20031783 27.41541288 -13.85746217 27.41477418 C-16.77040627 27.41406229 -19.68334573 27.41192532 -22.59628868 27.40927696 C-32.76805288 27.40003167 -42.939804 27.39594106 -53.11157227 27.39672852 C-62.57788363 27.39732909 -72.04413798 27.38677906 -81.51043493 27.37098485 C-89.6507951 27.35788921 -97.79113667 27.35254547 -105.93150729 27.35318393 C-110.78758322 27.35343832 -115.64360845 27.35061968 -120.49967384 27.34000587 C-125.06908858 27.33029079 -129.63840449 27.33026902 -134.2078228 27.33752251 C-135.87907684 27.33856411 -137.55033715 27.33623079 -139.22158051 27.33016205 C-152.84355203 27.2839243 -165.85695685 27.60338035 -176.6875 36.95703125 Z " fill="#002953" transform="translate(224.9375,8.41796875)"/>
<path d="M0 0 C1.22009766 0.60714844 1.22009766 0.60714844 2.46484375 1.2265625 C10.78017201 5.92938638 15.85611401 11.43148491 18.53125 20.71484375 C20.18456272 28.77474325 18.85981854 36.05545392 14.74609375 43.16796875 C9.8759671 50.24093198 3.46744146 54.39410593 -5 56 C-7.59810482 56.07945275 -10.16805631 56.06542656 -12.765625 55.97265625 C-15.17369465 55.88867866 -15.17369465 55.88867866 -18 57 C-18 56.01 -18 55.02 -18 54 C-20.64 54 -23.28 54 -26 54 C-26.20625 53.319375 -26.4125 52.63875 -26.625 51.9375 C-27.88778054 49.23974157 -28.95812606 47.82895667 -30.9375 45.6875 C-36.87968075 38.88813425 -37.56705053 32.3346433 -37.34765625 23.40625 C-36.54182607 15.51092509 -32.7368965 9.3730933 -27 4 C-20.13420194 -1.40498996 -7.98063653 -4.08991024 0 0 Z M-26 51 C-25.67 51.66 -25.34 52.32 -25 53 C-24.34 52.67 -23.68 52.34 -23 52 C-23.99 51.67 -24.98 51.34 -26 51 Z " fill="#319DFC" transform="translate(107,76)"/>
<path d="M0 0 C3.26002052 1.15678148 6.149045 2.63858101 9.125 4.375 C18.33959583 9.58324982 27.41911578 12.14428279 37.96626282 12.15821838 C39.16098474 12.16562535 39.16098474 12.16562535 40.37984246 12.17318195 C43.04529982 12.18852446 45.71073314 12.19690877 48.3762207 12.20532227 C50.2882661 12.21490334 52.20030939 12.22491356 54.11235046 12.23532104 C59.30195803 12.26235129 64.49157466 12.28337106 69.68121362 12.30332303 C75.10513477 12.32519416 80.52902801 12.35257734 85.95292664 12.37937927 C96.22337536 12.4292909 106.4938396 12.47423542 116.76431865 12.51740164 C128.45709635 12.56678707 140.14984604 12.62170037 151.84259665 12.67708123 C175.89503829 12.79087779 199.94750681 12.89772192 224 13 C219.20587307 16.19608462 215.48502411 16.12743381 209.75518799 16.14044189 C209.02393636 16.14341302 208.29268474 16.14638414 207.53927398 16.1494453 C205.0876945 16.15811995 202.63616392 16.15963955 200.18457031 16.16113281 C198.42671098 16.1657622 196.66885265 16.17078702 194.91099548 16.17617798 C190.13138523 16.18930035 185.35178903 16.1957477 180.57216358 16.20018864 C177.58096186 16.20312222 174.58976395 16.20722777 171.59856415 16.21169281 C162.22583288 16.22537303 152.85311036 16.23503469 143.48036981 16.2388947 C132.6888579 16.24336399 121.89747338 16.26085704 111.10600019 16.2898953 C102.74989736 16.31159274 94.39383013 16.32160342 86.03769946 16.32293582 C81.05504377 16.32397894 76.07250773 16.32977988 71.0898819 16.34775543 C66.39159527 16.36437389 61.6935164 16.36632562 56.99521065 16.35761642 C55.28293611 16.35685311 53.57064978 16.36109401 51.85840416 16.37107468 C32.71067026 16.47601868 15.67881944 13.89831905 0 2 C0 1.34 0 0.68 0 0 Z " fill="#031C3A" transform="translate(32,297)"/>
<path d="M0 0 C0.99 0.33 1.98 0.66 3 1 C4.06115157 3.35538845 4.8691459 5.54580706 5.625 8 C5.8415625 8.61617187 6.058125 9.23234375 6.28125 9.8671875 C7.82455646 14.7638512 8.28311946 19.63578494 8.55978394 24.74000549 C8.60152359 25.48603549 8.64326324 26.23206548 8.68626773 27.00070244 C9.10579849 35.09583659 9.14083113 43.18092022 9.12939453 51.28491211 C9.13075423 52.93619831 9.13253733 54.5874842 9.13470459 56.23876953 C9.13920885 60.66598676 9.13751932 65.09318033 9.1343255 69.5203979 C9.13176825 74.18014886 9.13414844 78.83989799 9.13571167 83.49964905 C9.13752236 91.31235106 9.13515475 99.12504357 9.13037109 106.93774414 C9.12491722 115.94868221 9.12670372 124.95959769 9.1321975 133.97053522 C9.13674415 141.74167255 9.13737198 149.5128031 9.13475883 157.28394133 C9.13320631 161.91069729 9.13297433 166.53744265 9.13629532 171.16419792 C9.13919711 175.50883157 9.13715614 179.85343618 9.13140106 184.19806671 C9.13008638 185.78547429 9.13044544 187.37288434 9.13266373 188.96029091 C9.14288569 197.02197028 9.06391881 204.99496379 8 213 C7.34 213 6.68 213 6 213 C5.505 213.99 5.505 213.99 5 215 C5.00553076 213.49642976 5.00553076 213.49642976 5.01117325 211.96248436 C5.10011569 187.53120486 5.16577135 163.09994646 5.20724869 138.66853905 C5.22784183 126.85351163 5.25590025 115.03859141 5.30175781 103.22363281 C5.34172509 92.92133148 5.3674564 82.61910781 5.37635398 72.3167311 C5.38155198 66.86566208 5.39370125 61.41481517 5.42292023 55.9638176 C5.45024574 50.82399369 5.45841059 45.68448156 5.45243073 40.5445919 C5.45352334 38.66698825 5.46137441 36.78937323 5.4768219 34.91183281 C5.56373788 23.79428896 4.66874167 14.58979766 1 4 C0.64929286 2.67113078 0.30760009 1.33950404 0 0 Z " fill="#051F3F" transform="translate(302,46)"/>
<path d="M0 0 C2 2 2 2 2.24609566 4.72925758 C2.24425207 5.89993467 2.24240849 7.07061176 2.24050903 8.27676392 C2.24221788 8.92775759 2.24392673 9.57875127 2.24568737 10.24947202 C2.24899346 12.44067638 2.23796048 14.63157755 2.22705078 16.82275391 C2.22648691 18.38953138 2.22680276 19.95630938 2.22793579 21.52308655 C2.22851124 25.78527486 2.21672598 30.04735133 2.20278788 34.30951357 C2.19031241 38.76048502 2.18911254 43.21145883 2.18673706 47.66244507 C2.18051291 56.09494509 2.16408947 64.52739345 2.14403808 72.9598707 C2.12170814 82.55827618 2.11069297 92.15668409 2.10064721 101.75510907 C2.07972403 121.50343492 2.04452993 141.25171421 2 161 C1.34 161.33 0.68 161.66 0 162 C-0.66 161.34 -1.32 160.68 -2 160 C-1.70740515 157.99363529 -1.37366113 155.99285937 -1 154 C-1.33 153.34 -1.66 152.68 -2 152 C-1.835 150.989375 -1.67 149.97875 -1.5 148.9375 C-1.09009499 145.70949806 -1.07183692 143.63094255 -1.5 140.5 C-2.04782563 136.46663378 -1.60862967 133.03217155 -1 129 C-1.30262289 126.99512332 -1.62913819 124.99338221 -2 123 C-1.505 122.01 -1.505 122.01 -1 121 C-1.165 120.01 -1.33 119.02 -1.5 118 C-2 115 -2 115 -1 113 C-0.90110984 110.40558749 -0.86105427 107.8439052 -0.875 105.25 C-0.87113281 104.54617187 -0.86726562 103.84234375 -0.86328125 103.1171875 C-0.86937143 99.84067206 -1.02455728 96.8540019 -1.5703125 93.609375 C-2 91 -2 91 -1 89 C-1.08735634 87.45643469 -1.24171739 85.91648418 -1.42700195 84.3815918 C-2.18429472 76.89172692 -2.16422101 69.41337651 -2.16796875 61.89453125 C-2.17119044 60.36000031 -2.17455516 58.82546966 -2.17805481 57.29093933 C-2.18400184 54.09474983 -2.18589904 50.89858721 -2.18530273 47.70239258 C-2.18520075 43.62409622 -2.19891026 39.54597252 -2.21607494 35.46771717 C-2.22722926 32.30628172 -2.22922098 29.14488779 -2.22869301 25.98343468 C-2.22986574 24.48006273 -2.23424737 22.97668946 -2.24202538 21.47333717 C-2.30962782 7.07305643 -2.30962782 7.07305643 0 0 Z " fill="#032549" transform="translate(8,75)"/>
<path d="M0 0 C0 0.66 0 1.32 0 2 C-63.03 2.33 -126.06 2.66 -191 3 C-187.23136261 0.48757508 -184.6754072 -0.12460584 -180.25280762 -0.16494751 C-179.27376465 -0.17618149 -178.29472168 -0.18741547 -177.28601074 -0.19898987 C-176.21129517 -0.20631638 -175.13657959 -0.21364288 -174.02929688 -0.22119141 C-172.89468018 -0.2326973 -171.76006348 -0.24420319 -170.59106445 -0.25605774 C-166.80032093 -0.29299527 -163.00956215 -0.32257636 -159.21875 -0.3515625 C-157.21887635 -0.36886147 -155.21900272 -0.38616354 -153.21913195 -0.40379179 C-146.87333332 -0.45961359 -140.52750705 -0.51018194 -134.18164062 -0.55761719 C-128.49407671 -0.60021338 -122.80660239 -0.64857795 -117.11914062 -0.703125 C-78.05906364 -1.07634853 -39.05385774 -0.88216991 0 0 Z " fill="#032142" transform="translate(251,9)"/>
<path d="M0 0 C5.16474512 5.16474512 3.10840848 18.9883465 3.12525737 26.15000367 C3.12439471 28.40649468 3.11902894 30.66294951 3.11352539 32.91943359 C3.11324258 34.56679787 3.11340309 36.21416228 3.1139679 37.86152649 C3.11425219 42.28825353 3.10841539 46.7149529 3.10139394 51.14167356 C3.09509872 55.78476537 3.09455176 60.42785796 3.09336853 65.07095337 C3.09027327 73.84302828 3.08208446 82.61509057 3.07201904 91.38715994 C3.06080154 101.38245594 3.05533331 111.37775258 3.05032361 121.37305331 C3.03990014 141.91537589 3.02233601 162.45768715 3 183 C-0.08869124 179.91130876 0.0331598 176.90652651 -0.12304783 172.63610363 C-0.12212604 171.34282807 -0.12120424 170.04955252 -0.12025452 168.71708679 C-0.12110894 167.99410945 -0.12196337 167.27113211 -0.12284368 166.52624637 C-0.12448764 164.1095132 -0.11899488 161.6928498 -0.11352539 159.27612305 C-0.11324326 157.54141746 -0.11340176 155.80671175 -0.1139679 154.07200623 C-0.11425486 149.36583037 -0.10837444 144.65967998 -0.10139394 139.95351005 C-0.09514359 135.03409692 -0.09455527 130.11468321 -0.09336853 125.19526672 C-0.09026018 115.8810282 -0.08205347 106.56680142 -0.07201904 97.25256807 C-0.06084251 86.64806055 -0.05534357 76.04355248 -0.05032361 65.43904054 C-0.03987046 43.62602048 -0.0222806 21.81301098 0 0 Z " fill="#021433" transform="translate(32,77)"/>
<path d="M0 0 C0.33 0 0.66 0 1 0 C1.07476562 0.969375 1.14953125 1.93875 1.2265625 2.9375 C2.64495351 18.36687398 7.02270651 30.94242062 17 43 C18.33390005 44.66621313 19.66738907 46.33275566 21 48 C15.71101216 47.35529268 13.44651946 43.33224272 10.32421875 39.39453125 C5.00650643 32.00086161 -0.16767552 22.13316917 -0.09765625 12.890625 C-0.09443359 12.13652344 -0.09121094 11.38242187 -0.08789062 10.60546875 C-0.07951172 9.82816406 -0.07113281 9.05085938 -0.0625 8.25 C-0.05798828 7.45722656 -0.05347656 6.66445312 -0.04882812 5.84765625 C-0.03708565 3.89840492 -0.01915146 1.94919262 0 0 Z " fill="#021935" transform="translate(9,247)"/>
<path d="M0 0 C0.33 0 0.66 0 1 0 C1.08636719 0.89460937 1.17273437 1.78921875 1.26171875 2.7109375 C2.10414605 9.96044946 3.33541921 15.75315955 6.9765625 22.109375 C8 24 8 24 8 26 C8.99 26.33 9.98 26.66 11 27 C12.66666667 28.66666667 14.33333333 30.33333333 16 32 C16.928125 32.556875 17.85625 33.11375 18.8125 33.6875 C19.534375 34.120625 20.25625 34.55375 21 35 C21 35.66 21 36.32 21 37 C11.79737246 33.74915969 6.44624093 26.97880182 2.09375 18.515625 C0.17515011 14.10284524 -0.1149016 10.57094737 -0.0625 5.75 C-0.04896484 4.13351563 -0.04896484 4.13351563 -0.03515625 2.484375 C-0.02355469 1.66453125 -0.01195312 0.8446875 0 0 Z " fill="#36B1F3" transform="translate(35,246)"/>
<path d="M0 0 C0.33 0 0.66 0 1 0 C1 9.9 1 19.8 1 30 C0.34 30.33 -0.32 30.66 -1 31 C-1.66 30.34 -2.32 29.68 -3 29 C-2.70740515 26.99363529 -2.37366113 24.99285937 -2 23 C-2.33 22.34 -2.66 21.68 -3 21 C-2.71887936 18.99199544 -2.38932033 16.98985949 -2 15 C-1.34 15 -0.68 15 0 15 C0 10.05 0 5.1 0 0 Z " fill="#011A39" transform="translate(9,206)"/>
<path d="M0 0 C0.33 0 0.66 0 1 0 C1 8.91 1 17.82 1 27 C0.01 27.33 -0.98 27.66 -2 28 C-2 21.73 -2 15.46 -2 9 C-1.67 9 -1.34 9 -1 9 C-0.67 6.03 -0.34 3.06 0 0 Z " fill="#072649" transform="translate(310,130)"/>
<path d="M0 0 C2.375 0.25 2.375 0.25 5 1 C6.0625 2.9375 6.0625 2.9375 7 5 C7.60070312 5.27199219 8.20140625 5.54398438 8.8203125 5.82421875 C11.67228782 7.36264988 12.95331603 9.2369158 14.8125 11.875 C15.43769531 12.73867188 16.06289063 13.60234375 16.70703125 14.4921875 C18 17 18 17 17.69921875 19.3203125 C17.46847656 19.87460937 17.23773438 20.42890625 17 21 C16.35933594 20.05898438 15.71867187 19.11796875 15.05859375 18.1484375 C10.53667803 11.60558812 6.38935632 5.86146677 0 1 C0 0.67 0 0.34 0 0 Z " fill="#021F40" transform="translate(284,24)"/>
<path d="M0 0 C2 2 2 2 2.23046875 5.9921875 C2.22647285 7.61984978 2.21169582 9.24751266 2.1875 10.875 C2.18685547 11.69097656 2.18621094 12.50695312 2.18554688 13.34765625 C2.15810315 17.08610129 2.02102151 20.38339412 1 24 C0.34 24 -0.32 24 -1 24 C-1.02887236 20.18751574 -1.04675492 16.3750593 -1.0625 12.5625 C-1.07087891 11.47388672 -1.07925781 10.38527344 -1.08789062 9.26367188 C-1.09111328 8.22919922 -1.09433594 7.19472656 -1.09765625 6.12890625 C-1.10289307 5.17056885 -1.10812988 4.21223145 -1.11352539 3.22485352 C-1 1 -1 1 0 0 Z " fill="#021531" transform="translate(309,157)"/>
<path d="M0 0 C3 1 3 1 4.16796875 3.01953125 C7.79351315 12.95157818 7.37160421 22.55379284 7 33 C6.67 33 6.34 33 6 33 C5.97421875 32.07960937 5.9484375 31.15921875 5.921875 30.2109375 C5.50316779 20.86615391 3.86570526 12.94338851 1 4 C0.65290267 2.67018335 0.31260605 1.33834463 0 0 Z " fill="#011935" transform="translate(302,46)"/>
<path d="M0 0 C-1.27076039 3.81228118 -3.06730579 4.35941299 -6.53125 6.10742188 C-7.2634375 6.46384766 -7.995625 6.82027344 -8.75 7.1875 C-9.82507813 7.73954102 -9.82507813 7.73954102 -10.921875 8.30273438 C-14.73412149 10.19133811 -17.63699483 11.52390416 -22 11 C-18.76457977 8.18659111 -15.21584619 6.71570406 -11.3203125 5.05078125 C-9.14184362 4.06423558 -7.11875977 2.96740903 -5.0625 1.75 C-2 0 -2 0 0 0 Z " fill="#021B37" transform="translate(284,298)"/>
<path d="M0 0 C0 0.66 0 1.32 0 2 C-0.556875 2.21914063 -1.11375 2.43828125 -1.6875 2.6640625 C-7.46337205 5.06417149 -12.16390222 8.04678655 -17 12 C-17.66 11.67 -18.32 11.34 -19 11 C-15.08250229 4.65738465 -7.42702316 0 0 0 Z " fill="#021C3A" transform="translate(49,15)"/>
<path d="M0 0 C0.33 0 0.66 0 1 0 C0.67 5.94 0.34 11.88 0 18 C-0.99 18.33 -1.98 18.66 -3 19 C-4.16524551 15.50426346 -3.80670229 13.66634641 -3.1875 10.0625 C-3.01605469 9.02222656 -2.84460938 7.98195313 -2.66796875 6.91015625 C-2.06811434 4.29675545 -1.32172188 2.31440752 0 0 Z " fill="#022244" transform="translate(10,59)"/>
<path d="M0 0 C0.33 0 0.66 0 1 0 C1.1567564 7.71589817 0.67453101 15.31516461 0 23 C-0.66 22.67 -1.32 22.34 -2 22 C-1.98839844 21.03578125 -1.97679687 20.0715625 -1.96484375 19.078125 C-1.95582031 17.81484375 -1.94679688 16.5515625 -1.9375 15.25 C-1.92009766 13.37054688 -1.92009766 13.37054688 -1.90234375 11.453125 C-1.86894491 8.16029125 -1.86894491 8.16029125 -2.58984375 5.6875 C-2.72519531 5.130625 -2.86054687 4.57375 -3 4 C-1.625 1.75 -1.625 1.75 0 0 Z " fill="#03264B" transform="translate(9,237)"/>
<path d="M0 0 C0.99857603 2.63039539 1.09097144 3.75102553 0.109375 6.4375 C-0.56351562 7.7059375 -0.56351562 7.7059375 -1.25 9 C-1.68828125 9.845625 -2.1265625 10.69125 -2.578125 11.5625 C-3.91372218 13.85209517 -5.36222012 15.91905615 -7 18 C-7.99 17.67 -8.98 17.34 -10 17 C-9.52949219 16.27554687 -9.05898438 15.55109375 -8.57421875 14.8046875 C-3.93179183 7.59989702 -3.93179183 7.59989702 0 0 Z " fill="#021A36" transform="translate(304,270)"/>
<path d="M0 0 C0.99 0.33 1.98 0.66 3 1 C1.54362329 2.95981557 0.08499848 4.91788547 -1.375 6.875 C-1.7875 7.43058594 -2.2 7.98617187 -2.625 8.55859375 C-4.3254573 10.8350124 -5.9879119 12.9879119 -8 15 C-7.83423117 8.53501551 -3.99651306 4.69564198 0 0 Z " fill="#021B39" transform="translate(24,30)"/>
<path d="M0 0 C3 3 3 3 3.07421875 5.69921875 C2.94660156 6.68535156 2.81898438 7.67148438 2.6875 8.6875 C2.50767578 10.17830078 2.50767578 10.17830078 2.32421875 11.69921875 C2.21722656 12.45847656 2.11023438 13.21773438 2 14 C1.34 14 0.68 14 0 14 C-0.33 14.66 -0.66 15.32 -1 16 C-0.67 10.72 -0.34 5.44 0 0 Z " fill="#011A37" transform="translate(308,245)"/>
<path d="M0 0 C0.33 0 0.66 0 1 0 C1 7.59 1 15.18 1 23 C0.34 23 -0.32 23 -1 23 C-1.38133299 21.0085944 -1.71325582 19.00720923 -2 17 C-1.67 16.67 -1.34 16.34 -1 16 C-0.76321284 13.30764224 -0.57801975 10.63501844 -0.4375 7.9375 C-0.39431641 7.17888672 -0.35113281 6.42027344 -0.30664062 5.63867188 C-0.20026367 3.75934562 -0.09960066 1.87969756 0 0 Z " fill="#031B39" transform="translate(8,149)"/>
<path d="M0 0 C1 3 1 3 -0.21484375 5.91796875 C-0.78332031 6.99691406 -1.35179687 8.07585938 -1.9375 9.1875 C-2.50339844 10.27417969 -3.06929687 11.36085938 -3.65234375 12.48046875 C-4.09707031 13.31191406 -4.54179688 14.14335938 -5 15 C-5.66 15 -6.32 15 -7 15 C-6.30953378 9.47627027 -3.9496621 3.9496621 0 0 Z " fill="#041E3D" transform="translate(42,49)"/>
<path d="M0 0 C0.66 0 1.32 0 2 0 C3.7265625 2.3359375 3.7265625 2.3359375 5.625 5.375 C6.25664062 6.37273438 6.88828125 7.37046875 7.5390625 8.3984375 C9 11 9 11 9 13 C5.04738441 11.68246147 4.70721954 10.13037621 2.8125 6.5 C2.28269531 5.4996875 1.75289063 4.499375 1.20703125 3.46875 C0 1 0 1 0 0 Z " fill="#03203F" transform="translate(273,47)"/>
<path d="M0 0 C2.015625 0.98828125 2.015625 0.98828125 4 3 C4.13117541 5.89480289 4.06318053 8.34153404 3.75 11.1875 C3.65138672 12.31188477 3.65138672 12.31188477 3.55078125 13.45898438 C3.38592263 15.30775601 3.19541184 17.15420773 3 19 C2.67 19 2.34 19 2 19 C2 14.38 2 9.76 2 5 C1.34 5 0.68 5 0 5 C0 3.35 0 1.7 0 0 Z " fill="#2B92EB" transform="translate(278,184)"/>
<path d="M0 0 C-1.38877354 3.35620271 -2.91677965 5.07298728 -6 7 C-6.66 7 -7.32 7 -8 7 C-8 7.66 -8 8.32 -8 9 C-8.99 8.67 -9.98 8.34 -11 8 C-3.21621622 0 -3.21621622 0 0 0 Z " fill="#031E3E" transform="translate(55,39)"/>
<path d="M0 0 C4.51478398 0.53115106 7.34666857 2.36620292 11 5 C9.234375 5.6484375 9.234375 5.6484375 7 6 C5.078125 5.0390625 5.078125 5.0390625 3.25 3.625 C2.63640625 3.16351563 2.0228125 2.70203125 1.390625 2.2265625 C0.93171875 1.82179687 0.4728125 1.41703125 0 1 C0 0.67 0 0.34 0 0 Z " fill="#041F3D" transform="translate(258,37)"/>
<path d="M0 0 C-3.82517513 2.39073445 -7.59665524 2.55966552 -12 3 C-12 2.01 -12 1.02 -12 0 C-7.6835078 -0.76173392 -4.25566547 -1.16063604 0 0 Z " fill="#052546" transform="translate(265,309)"/>
<path d="M0 0 C0.474375 0.680625 0.94875 1.36125 1.4375 2.0625 C0.01999437 1.94740339 -1.39651169 1.81996342 -2.8125 1.6875 C-3.60140625 1.61789062 -4.3903125 1.54828125 -5.203125 1.4765625 C-7.648377 1.04742887 -9.41086903 0.27649362 -11.5625 -0.9375 C-3.36993982 -2.54800328 -3.36993982 -2.54800328 0 0 Z " fill="#011835" transform="translate(263.5625,11.9375)"/>
<path d="M0 0 C0.66 0 1.32 0 2 0 C0.55746343 3.36591866 -1.33264727 5.51047079 -4 8 C-4.99 7.67 -5.98 7.34 -7 7 C-5.625 5.5 -5.625 5.5 -4 4 C-3.34 4 -2.68 4 -2 4 C-1.34 2.68 -0.68 1.36 0 0 Z " fill="#011935" transform="translate(292,289)"/>
<path d="M0 0 C0.66 0.66 1.32 1.32 2 2 C-0.97 4.97 -3.94 7.94 -7 11 C-7 7.22089522 -6.00296038 6.53893899 -3.5 3.8125 C-2.8503125 3.09707031 -2.200625 2.38164062 -1.53125 1.64453125 C-1.0259375 1.10183594 -0.520625 0.55914062 0 0 Z " fill="#2D94F0" transform="translate(67,206)"/>
<path d="M0 0 C0.66 0 1.32 0 2 0 C1.71758359 1.46015291 1.42373386 2.91809793 1.125 4.375 C0.96257813 5.18710937 0.80015625 5.99921875 0.6328125 6.8359375 C0 9 0 9 -2 11 C-1.85892253 9.54119891 -1.71197585 8.08296449 -1.5625 6.625 C-1.48128906 5.81289063 -1.40007813 5.00078125 -1.31640625 4.1640625 C-1 2 -1 2 0 0 Z " fill="#031732" transform="translate(13,47)"/>
<path d="M0 0 C2.02910711 0.25327449 4.04962145 0.57730068 6.0625 0.9375 C7.16722656 1.13214844 8.27195312 1.32679688 9.41015625 1.52734375 C10.69212891 1.76130859 10.69212891 1.76130859 12 2 C12 2.33 12 2.66 12 3 C10.20866022 3.05391993 8.41686101 3.09275571 6.625 3.125 C5.62726562 3.14820313 4.62953125 3.17140625 3.6015625 3.1953125 C1 3 1 3 -1 1 C-0.67 0.67 -0.34 0.34 0 0 Z " fill="#01122B" transform="translate(55,308)"/>
<path d="M0 0 C6.75 0.875 6.75 0.875 9 2 C9 2.66 9 3.32 9 4 C5.65626525 3.44271087 2.96687001 2.64826111 0 1 C0 0.67 0 0.34 0 0 Z " fill="#011C3D" transform="translate(266,14)"/>
<path d="M0 0 C0.66 0.66 1.32 1.32 2 2 C1.625 4.625 1.625 4.625 1 7 C0.01 6.34 -0.98 5.68 -2 5 C-1.125 1.125 -1.125 1.125 0 0 Z " fill="#032345" transform="translate(8,230)"/>
<path d="M0 0 C0.99 0 1.98 0 3 0 C2.67 0.99 2.34 1.98 2 3 C-0.31 3.33 -2.62 3.66 -5 4 C-5 3.34 -5 2.68 -5 2 C-3.35 2 -1.7 2 0 2 C0 1.34 0 0.68 0 0 Z " fill="#30A6F2" transform="translate(255,282)"/>
<path d="M0 0 C1.98 0 3.96 0 6 0 C5.34 0.66 4.68 1.32 4 2 C2.68 1.34 1.36 0.68 0 0 Z " fill="#03315C" transform="translate(101,314)"/>
<path d="M0 0 C0.66 0 1.32 0 2 0 C1.67 1.32 1.34 2.64 1 4 C0.67 2.68 0.34 1.36 0 0 Z " fill="#2875C1" transform="translate(38,234)"/>
<path d="M0 0 C0.99 0.33 1.98 0.66 3 1 C2.01 1 1.02 1 0 1 C0 0.67 0 0.34 0 0 Z " fill="#023059" transform="translate(30,299)"/>
<path d="M0 0 C0.66 0 1.32 0 2 0 C2 0.66 2 1.32 2 2 C1.34 2 0.68 2 0 2 C0 1.34 0 0.68 0 0 Z " fill="#093B6F" transform="translate(260,41)"/>
<path d="M0 0 C3 1 3 1 3 1 Z " fill="#03325E" transform="translate(117,314)"/>
<path d="M0 0 C3 1 3 1 3 1 Z " fill="#04315D" transform="translate(109,314)"/>
<path d="" fill="#033059" transform="translate(0,0)"/>
<path d="" fill="#053561" transform="translate(0,0)"/>
<path d="M0 0 C0.99 0.495 0.99 0.495 2 1 C1.01 1.495 1.01 1.495 0 2 C0 1.34 0 0.68 0 0 Z " fill="#3595EC" transform="translate(82,185)"/>
<path d="M0 0 C3 1 3 1 3 1 Z " fill="#3496EA" transform="translate(207,117)"/>
<path d="M0 0 C0.33 0.66 0.66 1.32 1 2 C0.34 1.67 -0.32 1.34 -1 1 C-0.67 0.67 -0.34 0.34 0 0 Z " fill="#0C4177" transform="translate(43,54)"/>
<path d="" fill="#032D55" transform="translate(0,0)"/>
<path d="M0 0 C3 1 3 1 3 1 Z " fill="#04305C" transform="translate(236,7)"/>
<path d="M0 0 C3 1 3 1 3 1 Z " fill="#05315E" transform="translate(172,7)"/>
<path d="M0 0 C3 1 3 1 3 1 Z " fill="#05335F" transform="translate(149,7)"/>
<path d="M0 0 C3 1 3 1 3 1 Z " fill="#05335F" transform="translate(139,7)"/>
<path d="M0 0 C3 1 3 1 3 1 Z " fill="#04335E" transform="translate(75,7)"/>
<path d="" fill="#04315A" transform="translate(0,0)"/>
<path d="M0 0 C2 1 2 1 2 1 Z " fill="#04315D" transform="translate(143,314)"/>
<path d="M0 0 C2 1 2 1 2 1 Z " fill="#042F59" transform="translate(79,314)"/>
<path d="M0 0 C2 1 2 1 2 1 Z " fill="#052D54" transform="translate(56,312)"/>
<path d="M0 0 C2 1 2 1 2 1 Z " fill="#052F57" transform="translate(44,308)"/>
<path d="M0 0 C2 1 2 1 2 1 Z " fill="#083259" transform="translate(279,304)"/>
<path d="" fill="#042E58" transform="translate(0,0)"/>
<path d="" fill="#032F58" transform="translate(0,0)"/>
<path d="" fill="#318DE3" transform="translate(0,0)"/>
<path d="" fill="#2672B8" transform="translate(0,0)"/>
<path d="M0 0 C2 1 2 1 2 1 Z " fill="#3BA2F9" transform="translate(119,149)"/>
<path d="" fill="#389AF0" transform="translate(0,0)"/>
<path d="M0 0 C2 1 2 1 2 1 Z " fill="#3698ED" transform="translate(75,124)"/>
<path d="" fill="#134B80" transform="translate(0,0)"/>
<path d="" fill="#3595EC" transform="translate(0,0)"/>
<path d="" fill="#13497E" transform="translate(0,0)"/>
<path d="M0 0 C2 1 2 1 2 1 Z " fill="#10467D" transform="translate(44,60)"/>
<path d="M0 0 C2 1 2 1 2 1 Z " fill="#0C437B" transform="translate(58,44)"/>
<path d="M0 0 C2 1 2 1 2 1 Z " fill="#013157" transform="translate(31,21)"/>
<path d="" fill="#043158" transform="translate(0,0)"/>
<path d="M0 0 C2 1 2 1 2 1 Z " fill="#032E57" transform="translate(61,8)"/>
<path d="M0 0 C2 1 2 1 2 1 Z " fill="#04305B" transform="translate(244,7)"/>
<path d="M0 0 C2 1 2 1 2 1 Z " fill="#03325E" transform="translate(188,7)"/>
<path d="M0 0 C2 1 2 1 2 1 Z " fill="#04305E" transform="translate(108,7)"/>
<path d="M0 0 C2 1 2 1 2 1 Z " fill="#06325F" transform="translate(85,7)"/>
<path d="" fill="#05305A" transform="translate(0,0)"/>
<path d="" fill="#03325B" transform="translate(0,0)"/>
<path d="" fill="#072F56" transform="translate(0,0)"/>
<path d="" fill="#062F56" transform="translate(0,0)"/>
<path d="" fill="#04315B" transform="translate(0,0)"/>
<path d="" fill="#053159" transform="translate(0,0)"/>
<path d="" fill="#04335C" transform="translate(0,0)"/>
<path d="" fill="#04325B" transform="translate(0,0)"/>
<path d="" fill="#04335C" transform="translate(0,0)"/>
<path d="" fill="#01325F" transform="translate(0,0)"/>
<path d="" fill="#04335D" transform="translate(0,0)"/>
<path d="" fill="#04335D" transform="translate(0,0)"/>
<path d="" fill="#05345E" transform="translate(0,0)"/>
<path d="" fill="#04305C" transform="translate(0,0)"/>
<path d="" fill="#05335F" transform="translate(0,0)"/>
<path d="" fill="#02325C" transform="translate(0,0)"/>
<path d="" fill="#05345E" transform="translate(0,0)"/>
<path d="" fill="#03325E" transform="translate(0,0)"/>
<path d="" fill="#04325B" transform="translate(0,0)"/>
<path d="" fill="#06325A" transform="translate(0,0)"/>
<path d="" fill="#063259" transform="translate(0,0)"/>
<path d="" fill="#053157" transform="translate(0,0)"/>
<path d="" fill="#062F55" transform="translate(0,0)"/>
<path d="" fill="#032C52" transform="translate(0,0)"/>
<path d="" fill="#052C55" transform="translate(0,0)"/>
<path d="" fill="#052E57" transform="translate(0,0)"/>
<path d="" fill="#052F57" transform="translate(0,0)"/>
<path d="" fill="#062E53" transform="translate(0,0)"/>
<path d="" fill="#05325C" transform="translate(0,0)"/>
<path d="" fill="#03305B" transform="translate(0,0)"/>
<path d="" fill="#062E55" transform="translate(0,0)"/>
<path d="" fill="#052D57" transform="translate(0,0)"/>
<path d="" fill="#063058" transform="translate(0,0)"/>
<path d="" fill="#053463" transform="translate(0,0)"/>
<path d="" fill="#04335A" transform="translate(0,0)"/>
<path d="" fill="#03325A" transform="translate(0,0)"/>
<path d="" fill="#013059" transform="translate(0,0)"/>
<path d="" fill="#04315A" transform="translate(0,0)"/>
<path d="" fill="#042F59" transform="translate(0,0)"/>
<path d="" fill="#07375F" transform="translate(0,0)"/>
<path d="" fill="#287BCB" transform="translate(0,0)"/>
<path d="" fill="#2A7ECD" transform="translate(0,0)"/>
<path d="" fill="#2772BE" transform="translate(0,0)"/>
<path d="" fill="#2B7CC9" transform="translate(0,0)"/>
<path d="" fill="#2570BD" transform="translate(0,0)"/>
<path d="" fill="#2777C3" transform="translate(0,0)"/>
<path d="" fill="#2C82D4" transform="translate(0,0)"/>
<path d="" fill="#2D85D7" transform="translate(0,0)"/>
<path d="" fill="#06345F" transform="translate(0,0)"/>
<path d="" fill="#2E88DC" transform="translate(0,0)"/>
<path d="" fill="#05355F" transform="translate(0,0)"/>
<path d="" fill="#318CE2" transform="translate(0,0)"/>
<path d="" fill="#308EE5" transform="translate(0,0)"/>
<path d="" fill="#318EE4" transform="translate(0,0)"/>
<path d="" fill="#3090E6" transform="translate(0,0)"/>
<path d="" fill="#3393E9" transform="translate(0,0)"/>
<path d="" fill="#3396EC" transform="translate(0,0)"/>
<path d="" fill="#053562" transform="translate(0,0)"/>
<path d="" fill="#3496EB" transform="translate(0,0)"/>
<path d="" fill="#3598ED" transform="translate(0,0)"/>
<path d="" fill="#053361" transform="translate(0,0)"/>
<path d="" fill="#3595E9" transform="translate(0,0)"/>
<path d="" fill="#379AF0" transform="translate(0,0)"/>
<path d="" fill="#053360" transform="translate(0,0)"/>
<path d="" fill="#2473B9" transform="translate(0,0)"/>
<path d="" fill="#3595EC" transform="translate(0,0)"/>
<path d="" fill="#3698ED" transform="translate(0,0)"/>
<path d="" fill="#3599F1" transform="translate(0,0)"/>
<path d="" fill="#2473BA" transform="translate(0,0)"/>
<path d="" fill="#3998F0" transform="translate(0,0)"/>
<path d="" fill="#36A1FB" transform="translate(0,0)"/>
<path d="" fill="#399AF2" transform="translate(0,0)"/>
<path d="" fill="#246CB6" transform="translate(0,0)"/>
<path d="" fill="#2A7BC7" transform="translate(0,0)"/>
<path d="" fill="#38A0F9" transform="translate(0,0)"/>
<path d="" fill="#3998F0" transform="translate(0,0)"/>
<path d="" fill="#399AF2" transform="translate(0,0)"/>
<path d="" fill="#3C9FFB" transform="translate(0,0)"/>
<path d="" fill="#399CF6" transform="translate(0,0)"/>
<path d="" fill="#3AA0F9" transform="translate(0,0)"/>
<path d="" fill="#2D84D4" transform="translate(0,0)"/>
<path d="" fill="#04315D" transform="translate(0,0)"/>
<path d="" fill="#1B5995" transform="translate(0,0)"/>
<path d="" fill="#308ADC" transform="translate(0,0)"/>
<path d="" fill="#3BA0F8" transform="translate(0,0)"/>
<path d="" fill="#39A1F6" transform="translate(0,0)"/>
<path d="" fill="#3AA2FC" transform="translate(0,0)"/>
<path d="" fill="#3AA1F7" transform="translate(0,0)"/>
<path d="" fill="#18548F" transform="translate(0,0)"/>
<path d="" fill="#2D7FCC" transform="translate(0,0)"/>
<path d="" fill="#3CA1FC" transform="translate(0,0)"/>
<path d="" fill="#195A92" transform="translate(0,0)"/>
<path d="" fill="#3AA0F7" transform="translate(0,0)"/>
<path d="" fill="#2B7CC9" transform="translate(0,0)"/>
<path d="" fill="#2B7ECD" transform="translate(0,0)"/>
<path d="" fill="#3BA2F6" transform="translate(0,0)"/>
<path d="" fill="#3BA1F8" transform="translate(0,0)"/>
<path d="" fill="#39A3FB" transform="translate(0,0)"/>
<path d="" fill="#318DE0" transform="translate(0,0)"/>
<path d="" fill="#2A78C4" transform="translate(0,0)"/>
<path d="" fill="#308DE2" transform="translate(0,0)"/>
<path d="" fill="#2D81CE" transform="translate(0,0)"/>
<path d="" fill="#3D9FF4" transform="translate(0,0)"/>
<path d="" fill="#3594E9" transform="translate(0,0)"/>
<path d="" fill="#154F86" transform="translate(0,0)"/>
<path d="" fill="#2772BF" transform="translate(0,0)"/>
<path d="" fill="#328AE1" transform="translate(0,0)"/>
<path d="" fill="#3391E4" transform="translate(0,0)"/>
<path d="" fill="#389DF4" transform="translate(0,0)"/>
<path d="" fill="#3C9EF8" transform="translate(0,0)"/>
<path d="" fill="#379FF5" transform="translate(0,0)"/>
<path d="" fill="#379BF4" transform="translate(0,0)"/>
<path d="" fill="#3999F0" transform="translate(0,0)"/>
<path d="" fill="#144C82" transform="translate(0,0)"/>
<path d="" fill="#3C9CF5" transform="translate(0,0)"/>
<path d="" fill="#3896ED" transform="translate(0,0)"/>
<path d="" fill="#3999F4" transform="translate(0,0)"/>
<path d="" fill="#3896EF" transform="translate(0,0)"/>
<path d="" fill="#3899F1" transform="translate(0,0)"/>
<path d="" fill="#389AF3" transform="translate(0,0)"/>
<path d="" fill="#3897ED" transform="translate(0,0)"/>
<path d="" fill="#236BB0" transform="translate(0,0)"/>
<path d="" fill="#3796EB" transform="translate(0,0)"/>
<path d="" fill="#3B9EF7" transform="translate(0,0)"/>
<path d="" fill="#3696EA" transform="translate(0,0)"/>
<path d="" fill="#3796ED" transform="translate(0,0)"/>
<path d="" fill="#3695EA" transform="translate(0,0)"/>
<path d="" fill="#3192E7" transform="translate(0,0)"/>
<path d="" fill="#3692EA" transform="translate(0,0)"/>
<path d="" fill="#38A2F7" transform="translate(0,0)"/>
<path d="" fill="#2164A8" transform="translate(0,0)"/>
<path d="" fill="#1F5FA2" transform="translate(0,0)"/>
<path d="" fill="#0F4679" transform="translate(0,0)"/>
<path d="" fill="#1C5D9D" transform="translate(0,0)"/>
<path d="" fill="#104577" transform="translate(0,0)"/>
<path d="" fill="#104577" transform="translate(0,0)"/>
<path d="" fill="#3490DE" transform="translate(0,0)"/>
<path d="" fill="#114476" transform="translate(0,0)"/>
<path d="" fill="#185490" transform="translate(0,0)"/>
<path d="" fill="#338FE0" transform="translate(0,0)"/>
<path d="" fill="#358FE1" transform="translate(0,0)"/>
<path d="" fill="#053460" transform="translate(0,0)"/>
<path d="" fill="#318FE0" transform="translate(0,0)"/>
<path d="" fill="#3391E3" transform="translate(0,0)"/>
<path d="" fill="#17508B" transform="translate(0,0)"/>
<path d="" fill="#0D4476" transform="translate(0,0)"/>
<path d="" fill="#3185D6" transform="translate(0,0)"/>
<path d="" fill="#134B84" transform="translate(0,0)"/>
<path d="" fill="#0B4071" transform="translate(0,0)"/>
<path d="" fill="#134D85" transform="translate(0,0)"/>
<path d="" fill="#0F457B" transform="translate(0,0)"/>
<path d="" fill="#0F4477" transform="translate(0,0)"/>
<path d="" fill="#04315C" transform="translate(0,0)"/>
<path d="" fill="#10457C" transform="translate(0,0)"/>
<path d="" fill="#08355F" transform="translate(0,0)"/>
<path d="" fill="#04315D" transform="translate(0,0)"/>
<path d="" fill="#0C3C6E" transform="translate(0,0)"/>
<path d="" fill="#06345F" transform="translate(0,0)"/>
<path d="" fill="#0D4176" transform="translate(0,0)"/>
<path d="" fill="#033561" transform="translate(0,0)"/>
<path d="" fill="#083B6C" transform="translate(0,0)"/>
<path d="" fill="#042F57" transform="translate(0,0)"/>
<path d="" fill="#053059" transform="translate(0,0)"/>
<path d="" fill="#063866" transform="translate(0,0)"/>
<path d="" fill="#093D6F" transform="translate(0,0)"/>
<path d="" fill="#0B3E71" transform="translate(0,0)"/>
<path d="" fill="#094073" transform="translate(0,0)"/>
<path d="" fill="#0A3B6A" transform="translate(0,0)"/>
<path d="" fill="#0A4076" transform="translate(0,0)"/>
<path d="" fill="#093D70" transform="translate(0,0)"/>
<path d="" fill="#093A6E" transform="translate(0,0)"/>
<path d="" fill="#0B4276" transform="translate(0,0)"/>
<path d="" fill="#043259" transform="translate(0,0)"/>
<path d="" fill="#104980" transform="translate(0,0)"/>
<path d="" fill="#052E5A" transform="translate(0,0)"/>
<path d="" fill="#042E55" transform="translate(0,0)"/>
<path d="" fill="#052D54" transform="translate(0,0)"/>
<path d="" fill="#09365E" transform="translate(0,0)"/>
<path d="" fill="#002B53" transform="translate(0,0)"/>
<path d="" fill="#022F57" transform="translate(0,0)"/>
<path d="" fill="#053358" transform="translate(0,0)"/>
<path d="" fill="#072F5E" transform="translate(0,0)"/>
<path d="" fill="#06335E" transform="translate(0,0)"/>
<path d="" fill="#08325D" transform="translate(0,0)"/>
<path d="" fill="#053160" transform="translate(0,0)"/>
<path d="" fill="#03315F" transform="translate(0,0)"/>
<path d="" fill="#073461" transform="translate(0,0)"/>
<path d="" fill="#05325E" transform="translate(0,0)"/>
<path d="" fill="#05345E" transform="translate(0,0)"/>
<path d="" fill="#03335F" transform="translate(0,0)"/>
<path d="" fill="#08345F" transform="translate(0,0)"/>
<path d="" fill="#053160" transform="translate(0,0)"/>
<path d="" fill="#04335F" transform="translate(0,0)"/>
<path d="" fill="#052C53" transform="translate(0,0)"/>
</svg>
